<svg width="741" height="200" viewBox="0 0 741 200" fill="none" xmlns="http://www.w3.org/2000/svg">
<g clip-path="url(#clip0_21_54)">
<mask id="mask0_21_54" style="mask-type:luminance" maskUnits="userSpaceOnUse" x="0" y="0" width="200" height="200">
<path d="M200 0H0V200H200V0Z" fill="white"/>
</mask>
<g mask="url(#mask0_21_54)">
<path d="M166.79 39.1099L56.4404 62.0999C50.2283 63.3852 44.6488 66.772 40.6417 71.6899C36.6345 76.6077 34.4445 82.7562 34.4404 89.0999V169.52C34.4418 173.62 35.357 177.668 37.1195 181.37C38.8819 185.072 41.4473 188.335 44.629 190.921C47.8107 193.507 51.5288 195.351 55.5128 196.32C59.4968 197.288 63.6466 197.357 67.6604 196.52L178 173.52C184.213 172.235 189.792 168.848 193.799 163.93C197.806 159.012 199.996 152.864 200 146.52V66.1199C200 62.0201 199.086 57.9718 197.325 54.2695C195.564 50.5672 193 47.3039 189.819 44.717C186.638 42.1301 182.921 40.2846 178.937 39.3147C174.954 38.3447 170.804 38.2748 166.79 39.1099Z" fill="#3B82F6"/>
<path d="M132.3 3.46L22 26.45C15.7879 27.7353 10.2084 31.1221 6.20126 36.0399C2.19411 40.9578 0.00408653 47.1063 0 53.45V133.87C0.00171554 137.969 0.916759 142.016 2.67862 145.717C4.44047 149.418 7.00487 152.68 10.1854 155.266C13.3659 157.852 17.0827 159.697 21.0654 160.666C25.0482 161.635 29.1969 161.705 33.21 160.87L143.56 137.87C149.772 136.585 155.352 133.198 159.359 128.28C163.366 123.362 165.556 117.214 165.56 110.87V30.47C165.561 26.3649 164.647 22.3113 162.882 18.6046C161.118 14.8979 158.549 11.6316 155.363 9.04378C152.176 6.45594 148.452 4.61182 144.462 3.64584C140.473 2.67986 136.317 2.61637 132.3 3.46Z" fill="#172B4D"/>
</g>
</g>
<path d="M276.702 75.9304V58.1818H360.324V75.9304H329.152V160H307.874V75.9304H276.702ZM385.083 161.442C380.211 161.442 375.869 160.597 372.057 158.906C368.246 157.183 365.23 154.647 363.009 151.3C360.821 147.919 359.728 143.71 359.728 138.672C359.728 134.429 360.507 130.866 362.064 127.983C363.622 125.099 365.743 122.779 368.428 121.023C371.113 119.266 374.162 117.94 377.576 117.045C381.023 116.151 384.635 115.521 388.414 115.156C392.855 114.692 396.435 114.261 399.152 113.864C401.87 113.433 403.842 112.803 405.069 111.974C406.295 111.146 406.908 109.92 406.908 108.295V107.997C406.908 104.848 405.914 102.412 403.925 100.689C401.97 98.9654 399.185 98.1037 395.573 98.1037C391.761 98.1037 388.729 98.9489 386.475 100.639C384.221 102.296 382.73 104.384 382 106.903L362.412 105.312C363.407 100.672 365.362 96.6619 368.279 93.2812C371.195 89.8674 374.957 87.249 379.564 85.4261C384.204 83.5701 389.574 82.642 395.672 82.642C399.915 82.642 403.975 83.1392 407.853 84.1335C411.764 85.1278 415.227 86.669 418.243 88.7571C421.292 90.8452 423.695 93.5298 425.452 96.8111C427.209 100.059 428.087 103.954 428.087 108.494V160H408.002V149.411H407.405C406.179 151.797 404.538 153.902 402.483 155.724C400.428 157.514 397.959 158.923 395.076 159.95C392.192 160.945 388.861 161.442 385.083 161.442ZM391.148 146.825C394.264 146.825 397.015 146.212 399.401 144.986C401.787 143.726 403.66 142.036 405.019 139.915C406.378 137.794 407.057 135.391 407.057 132.706V124.602C406.394 125.033 405.483 125.431 404.323 125.795C403.196 126.127 401.92 126.442 400.495 126.74C399.069 127.005 397.644 127.254 396.219 127.486C394.794 127.685 393.501 127.867 392.341 128.033C389.855 128.397 387.685 128.977 385.828 129.773C383.972 130.568 382.531 131.645 381.503 133.004C380.476 134.33 379.962 135.987 379.962 137.976C379.962 140.859 381.006 143.063 383.094 144.588C385.215 146.08 387.9 146.825 391.148 146.825ZM508.055 105.412L488.666 106.605C488.334 104.948 487.622 103.456 486.528 102.131C485.434 100.772 483.993 99.6946 482.203 98.8991C480.446 98.0705 478.342 97.6562 475.889 97.6562C472.608 97.6562 469.84 98.3523 467.586 99.7443C465.333 101.103 464.206 102.926 464.206 105.213C464.206 107.036 464.935 108.577 466.393 109.837C467.851 111.096 470.354 112.107 473.9 112.869L487.721 115.653C495.145 117.178 500.681 119.631 504.326 123.011C507.972 126.392 509.795 130.833 509.795 136.335C509.795 141.34 508.32 145.732 505.37 149.51C502.454 153.288 498.443 156.238 493.339 158.359C488.268 160.447 482.418 161.491 475.789 161.491C465.681 161.491 457.627 159.387 451.627 155.178C445.662 150.935 442.165 145.168 441.137 137.876L461.968 136.783C462.598 139.865 464.123 142.218 466.542 143.842C468.962 145.433 472.061 146.229 475.839 146.229C479.551 146.229 482.534 145.516 484.788 144.091C487.075 142.633 488.235 140.76 488.268 138.473C488.235 136.551 487.423 134.976 485.832 133.75C484.241 132.491 481.788 131.529 478.474 130.866L465.25 128.232C457.792 126.74 452.241 124.155 448.595 120.476C444.982 116.797 443.176 112.107 443.176 106.406C443.176 101.501 444.502 97.2751 447.153 93.7287C449.838 90.1823 453.6 87.4479 458.439 85.5256C463.311 83.6032 469.011 82.642 475.541 82.642C485.186 82.642 492.776 84.6804 498.311 88.7571C503.879 92.8338 507.127 98.3854 508.055 105.412ZM542.322 138.026L542.371 112.621H545.454L569.914 83.6364H594.225L561.363 122.017H556.342L542.322 138.026ZM523.131 160V58.1818H544.31V160H523.131ZM570.859 160L548.387 126.74L562.506 111.776L595.667 160H570.859ZM605.013 58.1818H631.562L659.602 126.591H660.795L688.835 58.1818H715.383V160H694.502V93.7287H693.657L667.308 159.503H653.089L626.739 93.4801H625.894V160H605.013V58.1818Z" fill="#0F172A"/>
<defs>
<clipPath id="clip0_21_54">
<rect width="200" height="200" fill="white"/>
</clipPath>
</defs>
</svg>
